<svg width="115" height="45" viewBox="0 0 115 45" fill="none" xmlns="http://www.w3.org/2000/svg">
<path fill-rule="evenodd" clip-rule="evenodd" d="M45.459 27.3744C45.4185 26.6276 45.3984 25.862 45.3984 25.0783C45.3984 24.2946 45.4164 23.5341 45.452 22.7967C45.4882 22.0589 45.5467 21.409 45.6277 20.8462C45.7172 20.0719 45.9179 19.3298 46.2282 18.6195C46.5385 17.9095 46.9572 17.2827 47.4841 16.7387C48.0106 16.1947 48.6379 15.7616 49.3676 15.4385C50.0966 15.1161 50.9204 14.9548 51.8382 14.9548C52.6651 14.9548 53.4558 15.086 54.2102 15.3485C54.9646 15.6116 55.6228 15.9988 56.1845 16.5103C56.7463 17.0221 57.1974 17.6424 57.539 18.3708C57.8807 19.0988 58.0515 19.9244 58.0515 20.8462V21.2474C58.0515 21.3949 57.9972 21.5261 57.8888 21.6418C57.7799 21.7571 57.6489 21.8146 57.4957 21.8146H55.9792C55.8345 21.8146 55.7059 21.7571 55.5925 21.6418C55.4802 21.5261 55.4238 21.3949 55.4238 21.2474V20.8462C55.4238 20.4315 55.3407 20.0307 55.1752 19.6428C55.0093 19.256 54.7698 18.9148 54.4571 18.6195C54.1433 18.3249 53.7675 18.0892 53.329 17.9146C52.8902 17.7393 52.3929 17.6518 51.8382 17.6518C50.9373 17.6518 50.1442 17.9233 49.4585 18.4673C48.7738 19.0117 48.3684 19.8047 48.242 20.8462C48.1698 21.4274 48.1163 22.0867 48.08 22.8242C48.0441 23.5619 48.0261 24.3178 48.0261 25.0924C48.0261 25.8667 48.0441 26.6222 48.08 27.3581C48.1163 28.0945 48.1698 28.752 48.242 29.3314C48.2962 29.7453 48.411 30.1458 48.5871 30.5319C48.7625 30.9179 49.0034 31.2592 49.3102 31.5534C49.6169 31.8477 49.9818 32.0841 50.4055 32.2637C50.8292 32.4427 51.3067 32.533 51.8382 32.533C52.2946 32.533 52.7408 32.4708 53.1744 32.3472C53.6086 32.2225 53.9911 32.0298 54.3225 31.7674C54.6536 31.505 54.9195 31.1717 55.1216 30.7676C55.3231 30.3624 55.4238 29.8834 55.4238 29.3322V26.9587C55.4238 26.7751 55.3294 26.6829 55.1421 26.6829H52.6454C52.5024 26.6829 52.3749 26.6251 52.2629 26.5098C52.1513 26.3948 52.0956 26.2632 52.0956 26.1157V24.5527C52.0956 24.4056 52.1495 24.274 52.2573 24.1587C52.3647 24.0438 52.495 23.9859 52.6479 23.9859H57.4989C57.6426 23.9859 57.7708 24.0438 57.8824 24.1587C57.9951 24.274 58.0515 24.4056 58.0515 24.5527V29.3383C58.0515 30.1682 57.9007 30.9378 57.5996 31.6474C57.2981 32.3577 56.8716 32.9827 56.3194 33.522C55.7668 34.0613 55.1082 34.481 54.3447 34.78C53.5812 35.08 52.7458 35.2296 51.8382 35.2296C51.0102 35.2296 50.2407 35.0937 49.5296 34.8219C48.8185 34.5501 48.193 34.1582 47.6528 33.6464C47.1125 33.1345 46.6674 32.5171 46.3162 31.7931C45.9651 31.0694 45.7358 30.251 45.6277 29.3383C45.5552 28.7758 45.4992 28.1209 45.459 27.3744" fill="black"/>
<path fill-rule="evenodd" clip-rule="evenodd" d="M60.9106 34.4413V15.7429C60.9106 15.5951 60.9666 15.4639 61.0793 15.3489C61.1913 15.2333 61.3195 15.1758 61.4632 15.1758H62.9861C63.1294 15.1758 63.2576 15.2333 63.37 15.3489C63.482 15.4632 63.5383 15.5944 63.5383 15.7422V23.2396C63.5383 23.4236 63.6281 23.5201 63.8081 23.5295H69.8851C70.0647 23.5295 70.1545 23.4322 70.1545 23.2396V15.7422C70.1545 15.5944 70.2105 15.4632 70.3232 15.3489C70.4352 15.2333 70.563 15.1758 70.7071 15.1758H72.2296C72.3733 15.1758 72.5011 15.2333 72.6135 15.3489C72.7258 15.4639 72.7822 15.5951 72.7822 15.7429V34.4413C72.7822 34.5888 72.7258 34.7204 72.6135 34.8353C72.5011 34.9507 72.3733 35.0085 72.2296 35.0085H70.7071C70.563 35.0085 70.4352 34.9507 70.3232 34.8353C70.2105 34.7204 70.1545 34.5888 70.1545 34.4413V26.5167C70.1545 26.332 70.0647 26.2355 69.8851 26.2261H63.8081C63.6281 26.2261 63.5383 26.323 63.5383 26.5167V34.4413C63.5383 34.5888 63.482 34.7204 63.37 34.8353C63.2576 34.9507 63.1294 35.0085 62.9861 35.0085H61.4632C61.3195 35.0085 61.1913 34.9507 61.0793 34.8353C60.9666 34.7204 60.9106 34.5888 60.9106 34.4413" fill="black"/>
<path fill-rule="evenodd" clip-rule="evenodd" d="M75.116 27.3673C75.0755 26.6201 75.0554 25.8545 75.0554 25.0716C75.0554 24.2886 75.0734 23.5288 75.1093 22.7917C75.1452 22.054 75.2037 21.4048 75.2847 20.8423C75.3741 20.0691 75.5742 19.3274 75.8845 18.6174C76.1944 17.9082 76.6117 17.2814 77.1372 16.7377C77.6627 16.1941 78.2892 15.761 79.0172 15.4386C79.7451 15.1158 80.5672 14.9546 81.4828 14.9546C82.3077 14.9546 83.074 15.0905 83.7823 15.3627C84.4905 15.6345 85.116 16.0256 85.6584 16.5375C86.2007 17.0483 86.6463 17.6685 86.996 18.3966C87.3461 19.1235 87.5743 19.9397 87.6817 20.8423C87.7532 21.4048 87.8025 22.0587 87.83 22.8055C87.8564 23.5516 87.8701 24.3117 87.8701 25.0857C87.8701 25.8589 87.8522 26.6201 87.8169 27.3673C87.7807 28.1148 87.7359 28.7702 87.682 29.3326C87.5926 30.108 87.3908 30.8555 87.077 31.5759C86.7632 32.2953 86.3462 32.9246 85.8264 33.465C85.3065 34.0051 84.6786 34.4338 83.9436 34.7519C83.2089 35.0711 82.3883 35.2297 81.4828 35.2297C80.6566 35.2297 79.8885 35.0938 79.1788 34.8216C78.4692 34.5491 77.8447 34.1572 77.3055 33.6447C76.7667 33.1328 76.3219 32.5143 75.9718 31.7899C75.6217 31.0652 75.3921 30.2461 75.2847 29.3326C75.2125 28.7702 75.1565 28.1148 75.116 27.3673M77.7369 22.8194C77.701 23.5561 77.6831 24.3116 77.6831 25.0855C77.6831 25.8587 77.701 26.6142 77.7369 27.3509C77.7729 28.0886 77.8267 28.7472 77.8986 29.3271C77.9525 29.7413 78.0669 30.1425 78.2423 30.5297C78.4174 30.9161 78.6579 31.2573 78.9629 31.5516C79.2686 31.8469 79.6324 32.084 80.0547 32.263C80.4766 32.443 80.9528 32.5326 81.4828 32.5326C82.4172 32.5326 83.212 32.2543 83.8682 31.6972C84.5236 31.1402 84.9279 30.35 85.0807 29.3271C85.1526 28.7472 85.2111 28.0886 85.2558 27.3509C85.3009 26.6142 85.3234 25.8587 85.3234 25.0855C85.3234 24.3116 85.3009 23.5561 85.2558 22.8194C85.2111 22.0824 85.1526 21.4245 85.0807 20.8432C85.0272 20.4293 84.912 20.0277 84.737 19.6413C84.562 19.2545 84.3214 18.9129 84.0161 18.6187C83.7107 18.3237 83.3515 18.0891 82.938 17.9146C82.5249 17.7389 82.04 17.6514 81.4828 17.6514C80.5844 17.6514 79.7941 17.9232 79.1112 18.4665C78.4286 19.0098 78.0243 19.8025 77.8986 20.8432C77.8267 21.4245 77.7729 22.0824 77.7369 22.8194" fill="black"/>
<path fill-rule="evenodd" clip-rule="evenodd" d="M89.8975 29.3295V28.886C89.8975 28.7385 89.9528 28.6073 90.0647 28.4916C90.1753 28.3759 90.3021 28.3185 90.4448 28.3185L91.9782 28.3282C92.1205 28.3282 92.2473 28.3835 92.3582 28.4934C92.4702 28.604 92.5251 28.737 92.5251 28.8932V29.3353C92.5251 29.785 92.6128 30.2104 92.7882 30.6095C92.9636 31.0093 93.2133 31.3494 93.5377 31.6299C93.8613 31.9108 94.2396 32.1309 94.6721 32.2914C95.1035 32.4519 95.5761 32.5329 96.0893 32.5329C96.602 32.5329 97.0775 32.4519 97.5135 32.2914C97.9499 32.1309 98.3302 31.905 98.6542 31.6155C98.9779 31.3263 99.2258 30.9861 99.397 30.595C99.5675 30.2046 99.6534 29.7835 99.6534 29.3335C99.6534 28.6709 99.5442 28.1449 99.3259 27.7549C99.1068 27.3638 98.7969 27.0399 98.395 26.7815C97.9935 26.5244 97.5072 26.322 96.9356 26.1753C96.3643 26.0285 95.73 25.8658 95.0313 25.6869C94.3491 25.5394 93.7289 25.3178 93.1717 25.0229C92.6153 24.7283 92.1346 24.3581 91.7302 23.9157C91.3263 23.4732 91.0069 22.9495 90.7734 22.3451C90.5399 21.7414 90.4229 21.0517 90.4229 20.2767C90.4229 19.4294 90.5839 18.6757 90.9065 18.0164C91.2284 17.3578 91.6559 16.8 92.1884 16.3435C92.7216 15.888 93.3253 15.5421 94.0015 15.3071C94.677 15.0722 95.3729 14.9543 96.0893 14.9543C96.9011 14.9543 97.6533 15.095 98.3475 15.3762C99.0416 15.6574 99.6439 16.0395 100.153 16.5235C100.662 17.0075 101.059 17.5693 101.343 18.2098C101.627 18.8507 101.769 19.5393 101.769 20.276V20.6494C101.769 20.7972 101.715 20.9284 101.607 21.0438C101.498 21.1587 101.367 21.2169 101.214 21.2169L99.683 21.2194C99.5386 21.2194 99.4121 21.162 99.3037 21.0467C99.1956 20.9317 99.1413 20.8001 99.1413 20.6526V20.2792C99.1413 19.809 99.0487 19.4077 98.8641 19.0759C98.6799 18.7441 98.4391 18.4697 98.1418 18.2528C97.8446 18.0363 97.5163 17.8819 97.156 17.7898C96.7957 17.6976 96.4404 17.6513 96.0893 17.6513C95.1891 17.6513 94.4572 17.8866 93.8951 18.3576C93.332 18.8276 93.0506 19.4695 93.0506 20.2814C93.0506 20.9086 93.1844 21.4049 93.4538 21.7689C93.7219 22.134 94.0607 22.4268 94.4699 22.6483C94.8795 22.8692 95.3275 23.0366 95.8146 23.149C96.3009 23.2618 96.7679 23.3706 97.2145 23.4732C98.7655 23.8698 99.9975 24.5389 100.911 25.4823C101.824 26.4258 102.281 27.7076 102.281 29.3273C102.281 30.2325 102.106 31.0498 101.757 31.7799C101.408 32.5098 100.949 33.1308 100.381 33.6433C99.8119 34.1559 99.1515 34.5488 98.4 34.821C97.647 35.0936 96.8771 35.2295 96.0893 35.2295C95.2123 35.2295 94.3924 35.0755 93.6313 34.7657C92.8703 34.457 92.2145 34.0319 91.6637 33.4919C91.1129 32.9518 90.6807 32.3261 90.3676 31.6147C90.0538 30.9037 89.8975 30.1425 89.8975 29.3295" fill="black"/>
<path fill-rule="evenodd" clip-rule="evenodd" d="M103.111 17.3056V15.7433C103.111 15.5955 103.167 15.4639 103.279 15.3489C103.391 15.2336 103.519 15.1758 103.662 15.1758H114.134C114.277 15.1758 114.405 15.2336 114.518 15.3489C114.63 15.4639 114.686 15.5955 114.686 15.7433V17.3056C114.686 17.4531 114.632 17.5847 114.525 17.7C114.417 17.8149 114.287 17.8727 114.135 17.8727H110.508C110.329 17.8727 110.235 17.9649 110.226 18.1493V34.4413C110.226 34.5888 110.171 34.7208 110.063 34.8353C109.955 34.9507 109.828 35.0089 109.684 35.0089H108.153C108.009 35.0089 107.88 34.9507 107.767 34.8353C107.654 34.7208 107.598 34.5888 107.598 34.4413V18.1493C107.598 17.9649 107.504 17.8727 107.316 17.8727H103.662C103.518 17.8727 103.391 17.8149 103.279 17.7C103.166 17.5847 103.111 17.4531 103.111 17.3056" fill="black"/>
<path fill-rule="evenodd" clip-rule="evenodd" d="M15.89 0.282715C7.21243 0.282715 0.152832 7.52849 0.152832 16.4345V43.474C0.152832 44.2186 0.740985 44.8226 1.46649 44.8226C2.192 44.8226 2.78015 44.2186 2.78015 43.474V16.4349C2.78015 9.01524 8.66133 2.97932 15.89 2.97932C23.1186 2.97932 28.9998 9.0156 28.9998 16.4349V41.0073C28.9998 41.6243 28.5106 42.126 27.9094 42.126C27.3082 42.126 26.8191 41.6243 26.8191 41.0073V16.4349C26.8191 10.2493 21.9163 5.21722 15.89 5.21722C9.8637 5.21722 4.9609 10.2493 4.9609 16.4345L4.96054 41.0069C4.96054 43.1107 6.62815 44.823 8.67788 44.823C10.728 44.823 12.3956 43.1107 12.3956 41.0069L12.3959 16.4349C12.3959 16.4345 12.3956 16.4342 12.3956 16.4338C12.3959 15.4759 12.7594 14.5758 13.419 13.8988C14.079 13.2214 14.9567 12.8487 15.8896 12.8487H15.89C17.8168 12.8487 19.384 14.4572 19.384 16.4349V41.0073C19.384 41.6239 18.8948 42.126 18.2937 42.126C17.6925 42.126 17.2033 41.6239 17.2033 41.0069V16.4349C17.2033 15.6899 16.6155 15.0862 15.89 15.0862C15.1641 15.0862 14.5763 15.6899 14.5763 16.4349V41.0069C14.5763 43.1107 16.2439 44.823 18.2937 44.823C20.3437 44.823 22.011 43.111 22.0113 41.0073V16.4349V16.4345C22.0113 12.9705 19.265 10.1521 15.89 10.1521H15.8896C14.2544 10.1521 12.7175 10.8053 11.5616 11.992C10.4054 13.1787 9.76825 14.7566 9.76825 16.4349C9.76825 16.4356 9.76861 16.436 9.76861 16.4363L9.76825 41.0069C9.76825 41.6239 9.27907 42.126 8.67788 42.126C8.0767 42.126 7.58786 41.6239 7.58786 41.0069L7.58821 16.4349C7.58821 11.7364 11.3122 7.91382 15.89 7.91382C20.4677 7.91382 24.1917 11.7364 24.1917 16.4349V41.0073C24.1917 43.111 25.8597 44.823 27.9094 44.823C29.9592 44.823 31.6271 43.111 31.6271 41.0073V16.4349C31.6271 7.52885 24.5675 0.282715 15.89 0.282715" fill="black"/>
</svg>
